<svg xmlns:svg="http://www.w3.org/2000/svg" xmlns="http://www.w3.org/2000/svg" id="svg2" version="1.1" xml:space="preserve" width="526.81" height="143.21" viewBox="0 0 526.81 143.21"><metadata id="metadata8"/><defs id="defs6"><clipPath clipPathUnits="userSpaceOnUse" id="clipPath18"><path d="m275.95 28.67-29.96 9.92c0 0 3.82 151.64-50.87 162.26-36.06 41.79 5.55 1784.89 136.56 5.97 0 0-44.84-22.51-53.33-60.75-8.48-38.26-2.4-117.4-2.4-117.4z" id="path20"/></clipPath><linearGradient x1="0" y1="0" x2="1" y2="0" gradientUnits="userSpaceOnUse" gradientTransform="matrix(344.394,-116.194,-104.815,-309.067,77.7619,575.995)" spreadMethod="pad" id="linearGradient22"><stop offset="0" id="stop24" style="stop-color:#929669;stop-opacity:1"/><stop offset="0.23" id="stop26" style="stop-color:#929669;stop-opacity:1"/><stop offset="1" id="stop28" style="stop-color:#fdfcf1;stop-opacity:1"/></linearGradient><clipPath clipPathUnits="userSpaceOnUse" id="clipPath36"><path d="m292.1 175.11c0 0 260.34 171.47 199.35 527.58-58.74 258.72-197.42 343.77-212.32 376.24-16.41 22.98-32.93 63.71-32.93 63.71l11.07-720.86c0 0-22.91-220.11 34.83-246.66z" id="path38"/></clipPath><linearGradient x1="0" y1="0" x2="1" y2="0" gradientUnits="userSpaceOnUse" gradientTransform="matrix(241.166,-936.211,-1007.33,-161.502,203.932,1135.85)" spreadMethod="pad" id="linearGradient40"><stop offset="0" id="stop42" style="stop-color:#45aa3a;stop-opacity:1"/><stop offset="1" id="stop44" style="stop-color:#3d9439;stop-opacity:1"/></linearGradient><clipPath clipPathUnits="userSpaceOnUse" id="clipPath52"><path d="m230.74 165.52c0 0-244.21 166.6-230.16 460.54C14.64 920.02 187.12 1064.55 220.72 1090.77c21.72 23.15 22.62 32.07 24.3 54.91 15.22-32.7 12.69-488.42 14.3-541.69 6.26-207.35-11.48-399.33-28.57-438.47z" id="path54"/></clipPath><linearGradient x1="0" y1="0" x2="1" y2="0" gradientUnits="userSpaceOnUse" gradientTransform="matrix(422.095,95.9042,131.897,-394.11,-25.0834,595.855)" spreadMethod="pad" id="linearGradient56"><stop offset="0" id="stop58" style="stop-color:#41a83b;stop-opacity:1"/><stop offset="1" id="stop60" style="stop-color:#5ebc44;stop-opacity:1"/></linearGradient></defs><g id="g10" transform="matrix(1.25,0,0,-1.25,0,143.2125)"><g id="g12" transform="scale(0.1,0.1)"><g id="g14"><g id="g16" clip-path="url(#clipPath18)"><path d="m275.95 28.67-29.96 9.92c0 0 3.82 151.64-50.87 162.26-36.06 41.79 5.55 1784.89 136.56 5.97 0 0-44.84-22.51-53.33-60.75-8.48-38.26-2.4-117.4-2.4-117.4" id="path30" style="fill-rule:nonzero;fill:url(#linearGradient22)"/></g></g><g id="g32"><g id="g34" clip-path="url(#clipPath36)"><path d="m292.1 175.11c0 0 260.34 171.47 199.35 527.58-58.74 258.72-197.42 343.77-212.32 376.24-16.41 22.98-32.93 63.71-32.93 63.71l11.07-720.86c0 0-22.91-220.11 34.83-246.66" id="path46" style="fill-rule:nonzero;fill:url(#linearGradient40)"/></g></g><g id="g48"><g id="g50" clip-path="url(#clipPath52)"><path d="m230.74 165.52c0 0-244.21 166.6-230.16 460.54C14.64 920.02 187.12 1064.55 220.72 1090.77c21.72 23.15 22.62 32.07 24.3 54.91 15.22-32.7 12.69-488.42 14.3-541.69 6.26-207.35-11.48-399.33-28.57-438.47" id="path62" style="fill-rule:nonzero;fill:url(#linearGradient56)"/></g></g><path d="m3181.61 260.41c17.27-13.81 51.81-19.5 82.26-19.5 39.48 0 78.14 7.32 115.97 41.43 38.65 34.95 64.98 88.56 64.98 173.85 0 82.05-31.26 148.66-95.41 187.65-36.2 22.74-83.07 31.67-136.54 31.67-15.63 0-31.26-0.81-40.31-4.87-2.47-1.62-7.41-8.12-7.41-11.38-1.64-14.62-1.64-125.9-1.64-191.7 0-67.42 0-161.65 1.64-173.03 0.84-9.74 5.76-26.8 16.46-34.11zm-164.18 451.66c13.98 0 67.11-2.43 91.8-2.43 46.06 0 78.13 2.43 164.49 2.43 72.39 0 133.27-19.5 176.86-56.86 52.65-45.5 80.61-108.85 80.61-186.02 0-109.67-50.17-173.03-100.34-208.77-50.19-37.36-115.17-58.48-208.11-58.48-49.36 0-134.09 1.63-204.83 2.43l-0.97 0c-3.28 6.51 6.06 31.84 11.85 32.5 19.12 2.16 24.3 2.9 33.18 6.55 14.93 6.15 18.46 13.75 20.12 40.57 2.45 50.36 1.64 110.47 1.64 178.71 0 48.73 0.81 143.78-0.83 173.84-2.47 25.18-13.14 31.67-34.54 36.55-10.7 2.43-25.5 4.87-46.06 7.31-1.65 4.87 11.02 26.81 15.13 31.68" id="path64" style="fill-rule:nonzero;fill:#c0bdba"/><path d="m3749.01 672.25c-3.28-0.81-7.4-8.94-7.4-13-0.81-29.23-1.63-105.59-1.63-158.39 0-1.62 2.45-4.06 4.11-4.06 10.69-0.82 37-1.63 59.21-1.63 31.26 0 49.37 4.07 59.23 8.95 26.32 12.99 38.65 41.42 38.65 72.29 0 70.67-49.35 97.49-122.54 97.49-4.94 0-18.93 0-29.63-1.63zm186.72-324.93c0 71.49-52.63 112.1-148.88 112.1-4.11 0-34.55 0.82-41.95-0.81-2.47-0.8-4.92-2.43-4.92-4.05 0-51.18-0.84-133.23 1.63-165.71 1.65-13.81 11.53-33.31 23.86-39 13.17-7.32 42.76-8.94 63.33-8.94 56.76 0 106.93 31.69 106.93 106.42zm-335.27 364.74c7.4 0 29.3-2.43 85.22-2.43 52.65 0 95.41 1.62 146.41 1.62 63.33 0 150.52-22.74 150.52-116.97 0-46.3-32.89-83.67-75.66-101.54-2.47-0.81-2.47-2.44 0-3.25 60.87-15.42 114.33-52.8 114.33-124.28 0-69.86-43.59-113.73-106.93-141.35-38.66-17.05-86.36-22.74-134.91-22.74-37.01 0-136.19 4.06-191.31 3.24-5.77 2.45 5.28 28.45 10.2 32.5 13.17 0.81 23.32 1.76 37.31 5.82 19.73 4.88 22.07 11.24 24.54 40.48 1.66 25.18 1.66 115.35 1.66 179.53 0 87.73 0.81 147.03 0 176.27-0.84 22.75-9.06 30.06-24.69 34.13-12.33 2.43-32.89 4.87-49.34 7.31-4.13 4.06 8.54 28.43 12.65 31.68" id="path66" style="fill-rule:nonzero;fill:#c0bdba"/><path d="m657.82 202.28c-1.37 2.19-2.82 8.65-2.51 16.42 0.23 5.91 1.4 9.66 2.51 10.95 15.51 2.45 22.86 4.1 31.57 6.43 14.54 3.61 20.02 11.46 20.88 30.06 2.39 43.81 2.53 125.96 1.65 183.74l0.01 1.7c0.07 6.2 0.16 14.67-7.62 20.65-11.41 7.52-25.63 13.73-43.62 19.13-6.89 2.04-10.7 5.66-10.49 9.9 0.22 4.07 4.54 9.25 13.52 10.98 23.82 2.46 86.27 17.33 110.77 28.63 1.45-1.76 3.74-5.58 3.3-11.67-0.18-2.56-0.41-5.24-0.63-8.02-0.7-8.16-1.48-17.42-1.48-26.64 0-2.72 2.95-5.29 6.07-5.29 1.59 0 3.06 0.62 4.25 1.8 46.7 36.55 88.47 49.6 109.98 49.6 35.34 0 62.83-16.87 84.09-51.54 1.25-1.84 2.92-2.8 4.79-2.8 1.78 0 3.47 0.92 4.45 2.39 42.95 32.53 85.51 51.96 113.96 51.96 67.34 0 107.56-50.35 107.56-134.66 0-24.23-0.25-54.93-0.46-83.6-0.21-25.15-0.38-48.73-0.38-65.04 0-3.96 5.29-14.93 13.28-17.12 9.84-4.79 24.07-7.23 42.03-10.33l0.69-0.11c1.37-4.83-1.49-23.63-4.23-27.48-4.45 0.04-10.63 0.36-18.32 0.74-13.98 0.72-33.14 1.68-55.45 1.68-44.74 0-68.12-0.88-90.45-2.32-1.68 5.58-2.27 23.57-0.22 27.32 13.02 2.44 19.46 4.08 27.28 6.39 14.24 4.69 18.34 11.14 19.17 30.03 0.33 13.45 2.91 131.68-1.67 159.75-4.22 29.09-26.18 63.15-74.19 63.15-17.81 0-46.59-7.4-74.02-28.18-1.7-1.65-2.68-4.86-2.68-6.97l0.05-0.54c3.23-15.16 3.23-32.83 3.23-59.57 0-15.24-0.1-31.41-0.18-47.46-0.19-32.6-0.36-63.38 0.18-86.63 0-15.85 9.6-19.63 17.32-22.69 4.19-0.93 7.52-1.73 10.85-2.52 6.47-1.56 13.15-3.16 23.06-4.75 1.35-3.12 1.47-12.46-0.39-20.44-1.04-4.41-2.23-6.35-2.86-6.98-24.88 0.85-50.41 1.6-87.24 1.6-11.16 0-29.4-0.48-45.48-0.91-13.03-0.35-25.38-0.69-32.4-0.71-1.01 1.61-2.44 6.75-2.44 14.16 0 6.89 1.27 11.74 2.57 13.24 3.46 0.64 6.75 1.22 9.89 1.78 8.64 1.54 16.1 2.85 23.26 4.61 12.19 3.72 16.77 10.49 17.66 25.97 2.38 36.15 4.24 140.29-0.88 166.37-8.71 41.85-32.57 63.06-70.88 63.06-22.46 0-50.82-10.79-74-28.15-3.89-2.86-6.82-10.07-6.82-16.72 0-12.4-0.04-27.17-0.09-43-0.16-52.3-0.34-117.4 0.93-145.58 0.78-8.66 3.8-18.96 20.14-22.77 3.56-1 9.74-2.03 16.9-3.21 4.12-0.69 8.63-1.43 13.26-2.27 1.66-4.48 0.65-22.03-2.21-27.5-7.14 0.05-15.94 0.46-26.03 0.9-15.41 0.68-34.58 1.54-56.43 1.54-25.71 0-43.61-0.86-57.98-1.54-9.64-0.45-18-0.86-26.35-0.9l0 0" id="path68" style="fill-rule:nonzero;fill:#414044"/><path d="m1473.84 506.09c-14.97 0-28.95-3.92-39.35-11.03-28.56-17.35-43.1-52-43.1-102.89 0-95.3 47.78-161.86 116.17-161.86 20.18 0 36.63 5.79 50.3 17.72 21.02 17.13 32.16 52.11 32.16 101.09 0 93.89-46.69 156.97-116.18 156.97l0 0zm13.17-311.13c-123.58 0-167.61 90.55-167.61 175.27 0 59.18 24.23 105.46 72.04 137.53 33.98 20.86 74.55 32.87 111.2 32.87 94.31 0 160.19-67.73 160.19-164.72 0-65.94-26.33-117.98-76.12-150.51-23.88-14.63-65.31-30.44-99.7-30.44l0 0" id="path70" style="fill-rule:nonzero;fill:#414044"/><path d="m2753.57 506.09c-14.99 0-28.98-3.92-39.37-11.03-28.55-17.35-43.09-51.98-43.09-102.89 0-95.3 47.76-161.86 116.17-161.86 20.18 0 36.63 5.79 50.3 17.73 21.01 17.12 32.16 52.09 32.16 101.07 0 93.9-46.69 156.98-116.17 156.98l0 0zm13.16-311.13c-123.59 0-167.62 90.54-167.62 175.26 0 59.2 24.25 105.48 72.06 137.55 33.97 20.86 74.54 32.86 111.18 32.86 94.32 0 160.2-67.74 160.2-164.71 0-65.96-26.33-118-76.12-150.51-23.88-14.64-65.3-30.45-99.7-30.45l0 0" id="path72" style="fill-rule:nonzero;fill:#414044"/><path d="m2340.02 509.34c-38.09 0-62.71-30.05-62.71-76.56 0-46.93 21.17-101.73 80.82-101.73 10.24 0 28.81 4.55 38.01 14.68 13.86 12.72 22.91 39 22.91 66.75 0 60.65-29.55 96.86-79.03 96.86l0 0zm-4.92-320.86c-14.31 0-24.72-4.16-30.94-7.65-30.15-19.31-44.13-38.59-44.13-60.79 0-20.94 8.14-37.57 25.62-52.36 21.17-17.92 49.72-26.64 87.28-26.64 73.86 0 106.98 39.68 106.98 79 0 27.36-13.75 45.71-42.03 56.08-21.8 7.96-58.21 12.36-102.78 12.36l0 0zM2340.02 0c-44.36 0-76.33 9.35-103.64 30.34-26.56 20.48-38.46 50.85-38.46 71.84 0 6.03 1.43 21.63 14.55 36.53 7.74 8.78 25.64 25.2 67 53.61 1.27 0.48 2.15 1.73 2.15 3.25 0 1.7-1.09 3.07-2.59 3.39-34.09 13.04-44.37 34.43-47.47 46.04-0.05 0.41-0.19 1.08-0.34 1.79-0.98 4.56-1.89 8.86 4.27 13.28 4.77 3.4 12.44 7.94 20.56 12.73 11.98 7.07 25.56 15.08 33.08 21.52 1.19 1.16 1.67 2.86 1.39 4.57-0.29 1.72-1.29 3.13-2.76 3.86-50.45 16.93-75.85 54.36-75.85 111.37 0 36.8 16.99 70.06 46.6 91.27 20.29 16.02 71.22 35.27 104.21 35.27l1.92-0.02c33.95-0.8 53.08-7.9 79.56-17.7 14.38-5.32 27.99-7.48 47.03-7.48 28.1 0 40.37 8.9 50.9 19.11 0.6-1.26 2.04-5.28 2.68-14.53 0.67-9.43-1.91-23.4-9.13-33.37-5.75-7.95-19.06-13.71-31.63-13.71-1.26 0-2.5 0.06-3.69 0.18-12.94 1.27-19.02 3.15-19.08 3.18l-3.17-1.1c-1-1.46-0.35-3.08 0.47-5.13 0.2-0.49 0.4-0.96 0.47-1.27 1.65-6.57 4.58-25.77 4.58-31.15 0-59.78-23.61-85.85-49.13-105.13-24.35-18.35-52.81-29.39-84.89-32.78l-0.03 0c-0.65 0-3.69-0.27-9.82-0.81-3.95-0.36-8.87-0.8-9.6-0.8l-0.72-0.09c-5.58-1.58-20.04-8.44-20.04-21.23 0-10.64 6.56-23.82 37.83-26.18 6.34-0.48 13.14-0.95 20.24-1.43 41.29-2.87 92.85-6.45 117.12-14.67 33.38-12.15 54.15-42.01 54.15-77.93 0-53.65-38.19-104.09-102.14-134.91C2405.58 7.09 2374.08 0 2340.02 0l0 0" id="path74" style="fill-rule:nonzero;fill:#414044"/><path d="m2137.12 230.89c-18.09 2.44-31.26 4.88-46.88 12.18-2.47 1.63-5.77 8.94-5.77 11.38-1.65 25.18-1.65 98.29-1.65 146.22 0 39-6.57 73.11-23.02 97.49-19.74 27.61-47.7 43.86-83.9 43.86-32.07 0-74.85-21.93-110.21-51.99-0.83-0.81-6.26-5.96-6.14 2.04 0.12 7.99 1.36 24.25 2.1 34.49 0.75 10.23-5.39 15.06-5.39 15.06-23.03-11.37-87.89-26.77-111.84-29.25-17.51-3.37-21.92-20.18-3.28-25.98l0 0c0-0.03 0.18-0.06 0.28-0.09 19.51-5.86 32.65-12.13 42.46-18.59 7.41-5.69 6.58-13.81 6.58-20.31 0.82-54.42 0.82-138.1-1.65-183.59-0.82-17.87-5.76-24.36-18.92-27.62l1.2 0.4c-9.87-2.42-18.1-4.06-30.43-5.68-4.12-4.05-4.12-27.61-0.01-32.5 8.23 0 50.19 2.44 84.73 2.44 47.7 0 72.38-2.44 84.72-2.44 4.93 5.7 6.58 27.63 3.29 32.5-13.99 0.81-23.86 2.44-33.73 4.88-13.16 3.25-16.45 9.75-17.26 24.37-1.65 38.18-1.65 119.41-1.65 174.65 0 15.43 4.11 22.75 9.05 26.81 16.44 14.63 43.59 24.36 67.45 24.36 23.02 0 38.65-7.31 50.17-17.05 15.63-13 21.38-31.68 23.03-45.5 3.29-30.87 2.46-92.6 2.46-146.22 0-29.25-2.46-36.56-13.15-39.8-4.94-2.44-18.1-4.87-33.73-6.5-4.93-4.87-3.29-27.61 0-32.5 21.39 0 46.07 2.44 82.25 2.44 45.25 0 74.03-2.44 85.55-2.44 4.93 5.7 6.57 26.82 3.29 32.5" id="path76" style="fill-rule:nonzero;fill:#414044"/><path d="m4137.01 270.97 13.92 0c11.25 0 15.53 3.93 15.53 14.1 0 10.34-4.11 13.75-16.78 13.75l-12.67 0 0-27.84zm29.63-43.73-16.42 35.34-13.21 0 0-35.34-9.64 0 0 80.32 23.75 0c17.66 0 24.98-7.86 24.98-22.49 0-11.77-5.54-19.27-15.88-21.42l16.95-36.4-10.53 0zm-15.52 97.97c-32.32 0-58.01-25.52-58.01-57.99 0-31.94 25.69-57.65 57.82-57.65 31.95 0 57.65 25.71 57.65 57.65 0 32.65-24.98 57.99-57.46 57.99zm-0.19-121.35c-35.69 0-63.53 27.84-63.53 63.53 0 35.88 27.84 63.53 63.72 63.53 34.98 0 63.34-28.02 63.34-62.63 0-36.23-27.83-64.43-63.53-64.43" id="path78" style="fill-rule:nonzero;fill:#c0bdba"/></g></g></svg>