<svg xmlns="http://www.w3.org/2000/svg" width="512" height="149" viewBox="0 0 512 149" version="1.1" preserveAspectRatio="xMidYMid"><path d="M3.33 115.63L3.33 58.65 74.48 58.65 74.48 55.32 3.33 55.32 3.33 3.33 78.97 3.33 78.97 0 0 0 0 118.96 79.64 118.96 79.64 115.63 3.33 115.63 3.33 115.63ZM143.79 33.32L114.3 72.14 85.47 33.32 81.14 33.32 112.3 74.64 78.14 118.96 82.14 118.96 114.3 77.14 146.62 118.96 150.78 118.96 116.46 74.64 147.79 33.32 143.79 33.32 143.79 33.32ZM160.78 148.29L160.78 94.97 161.11 94.97C163.11 102.74 167.06 108.99 172.94 113.71 178.83 118.43 186.33 120.79 195.44 120.79 201.32 120.79 206.54 119.6 211.1 117.21 215.65 114.82 219.46 111.57 222.51 107.47 225.57 103.36 227.9 98.58 229.51 93.14 231.12 87.69 231.92 81.97 231.92 75.98 231.92 69.53 231.09 63.59 229.43 58.15 227.76 52.71 225.34 47.98 222.18 43.99 219.01 39.99 215.18 36.88 210.68 34.66 206.18 32.43 201.1 31.32 195.44 31.32 191.1 31.32 187.08 31.96 183.36 33.24 179.64 34.52 176.33 36.32 173.44 38.65 170.56 40.99 168.06 43.74 165.95 46.9 163.84 50.07 162.22 53.54 161.11 57.31L160.78 57.31 160.78 33.32 157.45 33.32 157.45 148.29 160.78 148.29 160.78 148.29ZM195.44 117.63C185 117.63 176.61 114.05 170.28 106.88 163.95 99.72 160.78 89.42 160.78 75.98 160.78 70.42 161.56 65.15 163.11 60.15 164.67 55.15 166.92 50.76 169.86 46.98 172.8 43.21 176.44 40.21 180.77 37.99 185.11 35.77 189.99 34.66 195.44 34.66 200.99 34.66 205.85 35.77 210.01 37.99 214.18 40.21 217.62 43.24 220.34 47.07 223.07 50.9 225.12 55.29 226.51 60.23 227.9 65.17 228.59 70.42 228.59 75.98 228.59 80.97 227.95 85.94 226.68 90.89 225.4 95.83 223.43 100.27 220.76 104.22 218.1 108.16 214.68 111.38 210.51 113.88 206.35 116.38 201.32 117.63 195.44 117.63L195.44 117.63 195.44 117.63ZM250.25 118.96L250.25 70.48C250.25 65.81 250.92 61.26 252.25 56.81 253.58 52.37 255.64 48.46 258.42 45.07 261.19 41.68 264.72 39.02 269 37.07 273.27 35.13 278.35 34.32 284.24 34.66L284.24 31.32C279.13 31.21 274.66 31.77 270.83 32.99 267 34.21 263.69 35.88 260.92 37.99 258.14 40.1 255.92 42.57 254.25 45.4 252.58 48.23 251.36 51.26 250.59 54.48L250.25 54.48 250.25 33.32 246.92 33.32 246.92 118.96 250.25 118.96 250.25 118.96ZM288.41 76.81L360.05 76.81C360.27 70.92 359.69 65.26 358.3 59.81 356.91 54.37 354.69 49.54 351.64 45.32 348.58 41.1 344.64 37.71 339.81 35.16 334.97 32.6 329.23 31.32 322.56 31.32 317.79 31.32 313.12 32.32 308.57 34.32 304.01 36.32 300.01 39.24 296.57 43.07 293.13 46.9 290.35 51.59 288.24 57.15 286.13 62.7 285.07 69.03 285.07 76.14 285.07 82.47 285.8 88.39 287.24 93.89 288.68 99.38 290.91 104.16 293.9 108.21 296.9 112.27 300.76 115.41 305.48 117.63 310.2 119.85 315.9 120.91 322.56 120.79 332.34 120.79 340.56 118.04 347.22 112.55 353.88 107.05 357.83 99.3 359.05 89.3L355.72 89.3C354.27 98.75 350.58 105.83 344.64 110.55 338.7 115.27 331.23 117.63 322.23 117.63 316.12 117.63 310.95 116.57 306.73 114.46 302.51 112.35 299.07 109.46 296.4 105.8 293.74 102.13 291.77 97.83 290.49 92.89 289.21 87.94 288.52 82.58 288.41 76.81L288.41 76.81 288.41 76.81ZM356.72 73.48L288.41 73.48C288.74 67.48 289.85 62.09 291.74 57.31 293.63 52.54 296.1 48.46 299.15 45.07 302.21 41.68 305.76 39.1 309.82 37.32 313.87 35.54 318.23 34.66 322.89 34.66 328.45 34.66 333.34 35.68 337.56 37.74 341.78 39.79 345.3 42.6 348.14 46.15 350.97 49.71 353.11 53.84 354.55 58.56 356 63.28 356.72 68.26 356.72 73.48L356.72 73.48 356.72 73.48ZM429.19 58.65L432.53 58.65C432.53 49.1 429.75 42.15 424.2 37.82 418.64 33.49 411.09 31.32 401.54 31.32 396.2 31.32 391.71 31.99 388.04 33.32 384.37 34.66 381.38 36.38 379.04 38.49 376.71 40.6 375.04 42.93 374.04 45.49 373.05 48.04 372.55 50.48 372.55 52.82 372.55 57.48 373.38 61.2 375.04 63.98 376.71 66.76 379.32 68.92 382.88 70.48 385.32 71.59 388.1 72.59 391.21 73.48 394.32 74.36 397.93 75.31 402.04 76.31 405.7 77.2 409.31 78.09 412.87 78.97 416.42 79.86 419.56 81.06 422.28 82.56 425 84.06 427.22 85.97 428.94 88.3 430.67 90.64 431.53 93.69 431.53 97.47 431.53 101.13 430.67 104.24 428.94 106.8 427.22 109.35 425.03 111.44 422.36 113.05 419.7 114.66 416.73 115.82 413.45 116.55 410.17 117.27 406.98 117.63 403.87 117.63 393.76 117.63 386.01 115.38 380.63 110.88 375.24 106.38 372.55 99.3 372.55 89.64L369.21 89.64C369.21 100.41 372.13 108.3 377.96 113.3 383.79 118.29 392.43 120.79 403.87 120.79 407.53 120.79 411.23 120.38 414.95 119.54 418.67 118.71 422 117.35 424.95 115.46 427.89 113.57 430.28 111.13 432.11 108.13 433.94 105.13 434.86 101.47 434.86 97.14 434.86 93.03 434.05 89.69 432.44 87.14 430.83 84.58 428.72 82.47 426.11 80.81 423.5 79.14 420.56 77.84 417.28 76.89 414 75.95 410.7 75.03 407.37 74.14 402.7 72.92 398.62 71.87 395.12 70.98 391.62 70.09 388.37 69.03 385.37 67.81 382.49 66.59 380.18 64.84 378.46 62.56 376.74 60.29 375.88 57.04 375.88 52.82 375.88 52.04 376.1 50.65 376.54 48.65 376.99 46.65 378.04 44.62 379.71 42.57 381.38 40.51 383.93 38.68 387.37 37.07 390.82 35.46 395.54 34.66 401.54 34.66 405.65 34.66 409.39 35.1 412.78 35.99 416.17 36.88 419.09 38.29 421.53 40.24 423.97 42.18 425.86 44.65 427.19 47.65 428.53 50.65 429.19 54.32 429.19 58.65L429.19 58.65 429.19 58.65ZM506.34 58.65L509.67 58.65C509.67 49.1 506.89 42.15 501.34 37.82 495.78 33.49 488.23 31.32 478.68 31.32 473.35 31.32 468.85 31.99 465.18 33.32 461.52 34.66 458.52 36.38 456.18 38.49 453.85 40.6 452.19 42.93 451.19 45.49 450.19 48.04 449.69 50.48 449.69 52.82 449.69 57.48 450.52 61.2 452.19 63.98 453.85 66.76 456.46 68.92 460.02 70.48 462.46 71.59 465.24 72.59 468.35 73.48 471.46 74.36 475.07 75.31 479.18 76.31 482.84 77.2 486.45 78.09 490.01 78.97 493.56 79.86 496.7 81.06 499.42 82.56 502.14 84.06 504.36 85.97 506.09 88.3 507.81 90.64 508.67 93.69 508.67 97.47 508.67 101.13 507.81 104.24 506.09 106.8 504.36 109.35 502.17 111.44 499.5 113.05 496.84 114.66 493.87 115.82 490.59 116.55 487.31 117.27 484.12 117.63 481.01 117.63 470.9 117.63 463.15 115.38 457.77 110.88 452.38 106.38 449.69 99.3 449.69 89.64L446.35 89.64C446.35 100.41 449.27 108.3 455.1 113.3 460.93 118.29 469.57 120.79 481.01 120.79 484.68 120.79 488.37 120.38 492.09 119.54 495.81 118.71 499.14 117.35 502.09 115.46 505.03 113.57 507.42 111.13 509.25 108.13 511.08 105.13 512 101.47 512 97.14 512 93.03 511.19 89.69 509.58 87.14 507.97 84.58 505.86 82.47 503.25 80.81 500.64 79.14 497.7 77.84 494.42 76.89 491.15 75.95 487.84 75.03 484.51 74.14 479.84 72.92 475.76 71.87 472.26 70.98 468.76 70.09 465.52 69.03 462.52 67.81 459.63 66.59 457.32 64.84 455.6 62.56 453.88 60.29 453.02 57.04 453.02 52.82 453.02 52.04 453.24 50.65 453.69 48.65 454.13 46.65 455.19 44.62 456.85 42.57 458.52 40.51 461.07 38.68 464.52 37.07 467.96 35.46 472.68 34.66 478.68 34.66 482.79 34.66 486.54 35.1 489.92 35.99 493.31 36.88 496.23 38.29 498.67 40.24 501.11 42.18 503 44.65 504.34 47.65 505.67 50.65 506.34 54.32 506.34 58.65L506.34 58.65 506.34 58.65Z" fill="#222222"/></svg>